<?xml version="1.0" standalone="no"?>
<!DOCTYPE svg PUBLIC "-//W3C//DTD SVG 20010904//EN"
 "http://www.w3.org/TR/2001/REC-SVG-20010904/DTD/svg10.dtd">
<svg version="1.0" xmlns="http://www.w3.org/2000/svg"
 width="700.000000pt" height="700.000000pt" viewBox="0 0 700.000000 700.000000"
 preserveAspectRatio="xMidYMid meet">
<metadata>
Created by potrace 1.14, written by Peter Selinger 2001-2017
</metadata>
<g transform="translate(0.000000,700.000000) scale(0.100000,-0.100000)"
fill="#000000" stroke="none">
<path d="M4159 6545 c-59 -21 -212 -127 -269 -185 -8 -8 -40 -36 -70 -61 -213
-177 -376 -249 -592 -264 -310 -20 -333 -23 -418 -45 -81 -20 -174 -59 -226
-94 -91 -59 -115 -85 -220 -235 -2 -1 -31 -4 -66 -6 -222 -10 -419 -147 -551
-386 -78 -140 -145 -343 -171 -519 -14 -94 -15 -362 -2 -425 4 -16 12 -55 18
-85 14 -64 11 -54 26 -106 35 -122 140 -324 167 -324 12 0 15 -15 15 -70 0
-68 1 -71 28 -80 76 -27 77 -28 78 -122 1 -48 4 -133 8 -191 25 -397 252 -667
593 -704 315 -35 551 58 743 292 90 111 160 279 175 425 3 30 8 64 10 75 2 11
4 55 4 97 1 101 4 103 178 102 158 0 163 -3 163 -83 0 -118 27 -284 66 -399
60 -182 238 -369 436 -460 76 -35 220 -60 328 -56 208 6 366 67 485 188 39 39
84 98 102 131 34 65 80 183 88 224 3 14 7 37 10 51 8 40 15 119 18 197 2 71 9
89 21 58 3 -9 18 -15 40 -15 27 0 40 -6 51 -24 26 -39 16 -171 -28 -386 -26
-123 -76 -230 -184 -389 -59 -86 -71 -116 -47 -116 53 0 187 225 254 424 48
143 71 270 75 406 2 97 -7 120 -53 138 -37 15 -104 12 -110 -4 -9 -25 -19 -3
-21 45 -2 60 5 69 65 89 36 13 39 17 44 58 3 24 3 62 0 84 -5 39 -7 41 -67 64
l-63 24 7 81 c9 105 9 280 0 378 -9 95 -49 236 -85 300 -22 39 -25 51 -15 65
18 26 90 175 114 236 55 135 84 249 103 399 18 135 12 257 -18 413 -8 43 -57
179 -83 228 -82 164 -263 364 -415 461 l-26 17 30 -62 c16 -34 31 -81 33 -105
l2 -43 -66 58 c-36 31 -92 74 -123 94 -62 41 -188 100 -195 93 -3 -3 6 -20 20
-38 28 -36 51 -88 39 -88 -4 0 -27 12 -52 26 -39 22 -142 79 -220 120 -84 45
-122 51 -181 29z m-189 -1389 c52 -5 97 -9 100 -11 3 -2 33 -6 68 -10 90 -10
281 -59 387 -100 353 -136 577 -387 620 -695 8 -52 14 -410 8 -410 -2 0 -57
13 -121 29 -206 52 -357 73 -522 73 -246 0 -432 -69 -614 -225 -18 -16 -30
-18 -86 -11 -82 10 -314 10 -400 0 l-65 -7 -69 56 c-251 204 -588 240 -1084
115 -64 -17 -120 -30 -124 -30 -29 0 -33 359 -4 465 48 177 151 306 300 376
90 42 204 69 295 70 47 1 63 7 125 49 220 147 507 242 799 266 45 3 83 7 84 8
5 4 220 -2 303 -8z m-1130 -1200 c240 -41 459 -178 504 -316 24 -75 31 -202
16 -286 -54 -295 -180 -461 -447 -586 -111 -52 -184 -67 -313 -63 -180 5 -305
54 -418 164 -75 72 -110 121 -141 193 -102 240 -90 526 31 713 30 45 138 111
233 141 143 45 393 63 535 40z m1933 -5 c169 -29 323 -103 375 -180 71 -104
102 -228 98 -391 -6 -216 -68 -373 -196 -501 -125 -125 -251 -173 -455 -173
-98 0 -133 4 -189 23 -214 70 -380 203 -464 371 -121 244 -119 529 4 654 95
96 287 181 462 205 80 10 284 6 365 -8z"/>
<path d="M2721 3524 c-59 -17 -102 -54 -130 -109 -66 -133 34 -298 182 -297
125 0 212 85 211 207 0 59 -12 93 -41 127 -14 16 -21 12 -86 -52 -39 -38 -72
-68 -74 -67 -1 2 8 36 21 77 37 114 37 113 -5 120 -20 4 -55 1 -78 -6z"/>
<path d="M4407 3530 c-91 -16 -172 -115 -169 -206 4 -84 43 -149 115 -185 82
-43 169 -28 237 41 50 49 69 98 64 162 -4 44 -39 118 -56 118 -7 0 -43 -30
-81 -67 -77 -76 -77 -76 -31 60 17 49 20 69 11 72 -32 9 -55 11 -90 5z"/>
<path d="M1671 3552 c-18 -8 -45 -33 -59 -55 -23 -35 -26 -49 -26 -126 1 -217
42 -386 141 -571 103 -194 175 -294 197 -273 14 15 2 41 -70 155 -42 66 -91
152 -110 192 -68 146 -121 386 -111 512 6 79 20 104 71 123 29 12 32 10 113
-81 12 -13 20 -15 34 -7 55 29 -27 125 -122 142 -14 3 -40 -2 -58 -11z"/>
<path d="M2180 2657 c0 -1 -7 -33 -15 -72 -7 -38 -17 -92 -21 -120 -3 -27 -8
-53 -10 -56 -2 -3 -13 -71 -24 -150 -26 -179 -27 -189 -35 -269 -3 -36 -8 -83
-10 -105 -4 -33 -5 -199 -3 -290 1 -48 23 -185 39 -250 119 -456 438 -766 920
-894 188 -50 332 -66 599 -66 229 0 325 9 504 46 424 88 747 324 911 664 36
74 89 226 101 285 30 159 32 185 29 365 -4 192 -7 232 -25 360 -5 39 -12 90
-15 115 -9 70 -44 277 -60 357 -8 40 -15 75 -15 78 0 3 -22 -7 -50 -21 -27
-14 -80 -36 -117 -49 l-67 -22 -14 -69 c-20 -103 -20 -107 -43 -180 -31 -104
-84 -208 -123 -242 -31 -27 -39 -30 -67 -22 -34 10 -88 51 -164 127 -117 116
-232 199 -300 218 -98 27 -277 4 -418 -55 l-74 -30 -57 25 c-146 65 -325 89
-428 59 -75 -23 -166 -87 -292 -206 -161 -153 -186 -165 -239 -119 -51 45
-128 208 -151 321 -3 14 -7 36 -10 50 -3 14 -9 41 -12 60 -10 62 -13 65 -61
79 -27 8 -78 28 -115 46 -38 18 -68 32 -68 32z m1036 -744 c95 -32 122 -36
209 -37 91 -1 103 1 135 24 19 13 38 28 41 33 3 4 30 -7 59 -25 51 -32 57 -33
149 -32 82 1 112 6 205 38 59 20 114 36 121 36 29 0 51 -47 71 -150 10 -51 12
-352 3 -445 -24 -251 -37 -297 -97 -339 -74 -51 -276 -73 -430 -48 -54 9 -68
9 -162 -3 -80 -10 -230 -7 -286 5 -70 16 -127 45 -153 80 -24 33 -45 126 -58
260 -10 109 -10 417 0 495 10 74 42 145 66 145 10 0 67 -16 127 -37z"/>
<path d="M3170 1650 c-23 -23 -24 -29 -7 -51 34 -44 186 -88 324 -94 102 -4
213 3 213 14 0 4 -42 12 -92 19 -153 21 -305 67 -368 112 -35 25 -45 25 -70 0z"/>
<path d="M3685 2594 c-37 -11 -78 -13 -162 -9 -69 4 -113 3 -113 -3 0 -20 108
-49 170 -46 86 5 141 17 164 35 50 40 28 48 -59 23z"/>
</g>
</svg>
